<?xml version="1.0" encoding="UTF-8" standalone="no"?>
<!DOCTYPE svg PUBLIC "-//W3C//DTD SVG 1.1//EN"
 "http://www.w3.org/Graphics/SVG/1.1/DTD/svg11.dtd">
<!-- Generated by graphviz version 12.2.1 (20241206.2353)
 -->
<!-- Pages: 1 -->
<svg width="555pt" height="508pt"
 viewBox="0.00 0.00 555.39 507.91" xmlns="http://www.w3.org/2000/svg" xmlns:xlink="http://www.w3.org/1999/xlink">
<g id="graph0" class="graph" transform="scale(1 1) rotate(0) translate(4 503.91)">
<polygon fill="white" stroke="none" points="-4,4 -4,-503.91 551.39,-503.91 551.39,4 -4,4"/>
<!-- 0 -->
<g id="node1" class="node">
<title>0</title>
<ellipse fill="none" stroke="black" cx="347.29" cy="-28.99" rx="60.1" ry="28.99"/>
<text text-anchor="start" x="312.79" y="-32.19" font-family="Times,serif" font-size="14.00">data 2.0974 </text>
<text text-anchor="middle" x="347.29" y="-15.69" font-family="Times,serif" font-size="14.00">grad 1.0000 </text>
</g>
<!-- 1 -->
<g id="node2" class="node">
<title>1</title>
<ellipse fill="none" stroke="black" cx="349.29" cy="-470.92" rx="60.1" ry="28.99"/>
<text text-anchor="start" x="314.79" y="-474.12" font-family="Times,serif" font-size="14.00">data 1.0000 </text>
<text text-anchor="middle" x="349.29" y="-457.62" font-family="Times,serif" font-size="14.00">grad 0.2558 </text>
</g>
<!-- 8 -->
<g id="node9" class="node">
<title>8</title>
<ellipse fill="none" stroke="black" cx="349.29" cy="-360.44" rx="60.1" ry="28.99"/>
<text text-anchor="start" x="314.79" y="-363.64" font-family="Times,serif" font-size="14.00">data 0.2558 </text>
<text text-anchor="middle" x="349.29" y="-347.14" font-family="Times,serif" font-size="14.00">grad 1.0000 </text>
</g>
<!-- 1&#45;&gt;8 -->
<g id="edge5" class="edge">
<title>1&#45;&gt;8</title>
<path fill="none" stroke="black" d="M349.29,-441.7C349.29,-429.37 349.29,-414.68 349.29,-401.27"/>
<polygon fill="black" stroke="black" points="352.79,-401.41 349.29,-391.41 345.79,-401.41 352.79,-401.41"/>
<text text-anchor="middle" x="352.66" y="-410.63" font-family="Times,serif" font-size="14.00">*</text>
</g>
<!-- 2 -->
<g id="node3" class="node">
<title>2</title>
<ellipse fill="none" stroke="black" cx="63.29" cy="-470.92" rx="63.29" ry="28.99"/>
<text text-anchor="start" x="26.54" y="-474.12" font-family="Times,serif" font-size="14.00">data &#45;0.8178 </text>
<text text-anchor="middle" x="63.29" y="-457.62" font-family="Times,serif" font-size="14.00">grad &#45;2.0000 </text>
</g>
<!-- 5 -->
<g id="node6" class="node">
<title>5</title>
<ellipse fill="none" stroke="black" cx="208.29" cy="-360.44" rx="60.1" ry="28.99"/>
<text text-anchor="start" x="173.79" y="-363.64" font-family="Times,serif" font-size="14.00">data 1.6356 </text>
<text text-anchor="middle" x="208.29" y="-347.14" font-family="Times,serif" font-size="14.00">grad 1.0000 </text>
</g>
<!-- 2&#45;&gt;5 -->
<g id="edge4" class="edge">
<title>2&#45;&gt;5</title>
<path fill="none" stroke="black" d="M95.83,-445.58C116.96,-429.76 144.69,-409.02 167.32,-392.09"/>
<polygon fill="black" stroke="black" points="169.23,-395.03 175.14,-386.24 165.04,-389.43 169.23,-395.03"/>
<text text-anchor="middle" x="147.84" y="-410.63" font-family="Times,serif" font-size="14.00">*</text>
</g>
<!-- 3 -->
<g id="node4" class="node">
<title>3</title>
<ellipse fill="none" stroke="black" cx="208.29" cy="-470.92" rx="63.29" ry="28.99"/>
<text text-anchor="start" x="171.54" y="-474.12" font-family="Times,serif" font-size="14.00">data &#45;2.0000 </text>
<text text-anchor="middle" x="208.29" y="-457.62" font-family="Times,serif" font-size="14.00">grad &#45;0.8178 </text>
</g>
<!-- 3&#45;&gt;5 -->
<g id="edge9" class="edge">
<title>3&#45;&gt;5</title>
<path fill="none" stroke="black" d="M208.29,-441.7C208.29,-429.37 208.29,-414.68 208.29,-401.27"/>
<polygon fill="black" stroke="black" points="211.79,-401.41 208.29,-391.41 204.79,-401.41 211.79,-401.41"/>
<text text-anchor="middle" x="211.66" y="-410.63" font-family="Times,serif" font-size="14.00">*</text>
</g>
<!-- 4 -->
<g id="node5" class="node">
<title>4</title>
<ellipse fill="none" stroke="black" cx="278.29" cy="-249.96" rx="60.1" ry="28.99"/>
<text text-anchor="start" x="243.79" y="-253.16" font-family="Times,serif" font-size="14.00">data 1.8914 </text>
<text text-anchor="middle" x="278.29" y="-236.66" font-family="Times,serif" font-size="14.00">grad 1.0000 </text>
</g>
<!-- 7 -->
<g id="node8" class="node">
<title>7</title>
<ellipse fill="none" stroke="black" cx="347.29" cy="-139.47" rx="60.1" ry="28.99"/>
<text text-anchor="start" x="312.79" y="-142.67" font-family="Times,serif" font-size="14.00">data 2.0974 </text>
<text text-anchor="middle" x="347.29" y="-126.17" font-family="Times,serif" font-size="14.00">grad 1.0000 </text>
</g>
<!-- 4&#45;&gt;7 -->
<g id="edge7" class="edge">
<title>4&#45;&gt;7</title>
<path fill="none" stroke="black" d="M295.52,-221.86C304.16,-208.27 314.76,-191.62 324.1,-176.92"/>
<polygon fill="black" stroke="black" points="326.81,-179.19 329.22,-168.88 320.9,-175.44 326.81,-179.19"/>
<text text-anchor="middle" x="321.04" y="-189.67" font-family="Times,serif" font-size="14.00">+</text>
</g>
<!-- 5&#45;&gt;4 -->
<g id="edge1" class="edge">
<title>5&#45;&gt;4</title>
<path fill="none" stroke="black" d="M225.77,-332.34C234.54,-318.75 245.29,-302.1 254.77,-287.4"/>
<polygon fill="black" stroke="black" points="257.48,-289.65 259.96,-279.35 251.6,-285.86 257.48,-289.65"/>
<text text-anchor="middle" x="251.6" y="-300.15" font-family="Times,serif" font-size="14.00">+</text>
</g>
<!-- 6 -->
<g id="node7" class="node">
<title>6</title>
<ellipse fill="none" stroke="black" cx="416.29" cy="-249.96" rx="60.1" ry="28.99"/>
<text text-anchor="start" x="381.79" y="-253.16" font-family="Times,serif" font-size="14.00">data 0.2060 </text>
<text text-anchor="middle" x="416.29" y="-236.66" font-family="Times,serif" font-size="14.00">grad 1.0000 </text>
</g>
<!-- 6&#45;&gt;7 -->
<g id="edge8" class="edge">
<title>6&#45;&gt;7</title>
<path fill="none" stroke="black" d="M399.05,-221.86C390.41,-208.27 379.81,-191.62 370.47,-176.92"/>
<polygon fill="black" stroke="black" points="373.67,-175.44 365.35,-168.88 367.77,-179.19 373.67,-175.44"/>
<text text-anchor="middle" x="390.04" y="-189.67" font-family="Times,serif" font-size="14.00">+</text>
</g>
<!-- 7&#45;&gt;0 -->
<g id="edge6" class="edge">
<title>7&#45;&gt;0</title>
<path fill="none" stroke="black" d="M347.29,-110.25C347.29,-97.92 347.29,-83.24 347.29,-69.82"/>
<polygon fill="black" stroke="black" points="350.79,-69.96 347.29,-59.96 343.79,-69.96 350.79,-69.96"/>
<text text-anchor="middle" x="363.79" y="-79.18" font-family="Times,serif" font-size="14.00">ReLU</text>
</g>
<!-- 8&#45;&gt;4 -->
<g id="edge3" class="edge">
<title>8&#45;&gt;4</title>
<path fill="none" stroke="black" d="M331.55,-332.34C322.66,-318.75 311.76,-302.1 302.14,-287.4"/>
<polygon fill="black" stroke="black" points="305.27,-285.8 296.87,-279.35 299.42,-289.63 305.27,-285.8"/>
<text text-anchor="middle" x="322.16" y="-300.15" font-family="Times,serif" font-size="14.00">+</text>
</g>
<!-- 9 -->
<g id="node10" class="node">
<title>9</title>
<ellipse fill="none" stroke="black" cx="487.29" cy="-470.92" rx="60.1" ry="28.99"/>
<text text-anchor="start" x="452.79" y="-474.12" font-family="Times,serif" font-size="14.00">data 0.2558 </text>
<text text-anchor="middle" x="487.29" y="-457.62" font-family="Times,serif" font-size="14.00">grad 1.0000 </text>
</g>
<!-- 9&#45;&gt;8 -->
<g id="edge2" class="edge">
<title>9&#45;&gt;8</title>
<path fill="none" stroke="black" d="M456.32,-445.58C436.43,-429.94 410.41,-409.49 389.01,-392.67"/>
<polygon fill="black" stroke="black" points="391.37,-390.07 381.34,-386.64 387.04,-395.57 391.37,-390.07"/>
<text text-anchor="middle" x="429.92" y="-410.63" font-family="Times,serif" font-size="14.00">*</text>
</g>
</g>
</svg>
