<?xml version="1.0" encoding="UTF-8" standalone="no"?>
<!DOCTYPE svg PUBLIC "-//W3C//DTD SVG 1.1//EN"
 "http://www.w3.org/Graphics/SVG/1.1/DTD/svg11.dtd">
<!-- Generated by graphviz version 12.2.1 (20241206.2353)
 -->
<!-- Pages: 1 -->
<svg width="266pt" height="397pt"
 viewBox="0.00 0.00 266.21 397.43" xmlns="http://www.w3.org/2000/svg" xmlns:xlink="http://www.w3.org/1999/xlink">
<g id="graph0" class="graph" transform="scale(1 1) rotate(0) translate(4 393.43)">
<polygon fill="white" stroke="none" points="-4,4 -4,-393.43 262.21,-393.43 262.21,4 -4,4"/>
<!-- 0 -->
<g id="node1" class="node">
<title>0</title>
<ellipse fill="none" stroke="black" cx="60.1" cy="-360.44" rx="60.1" ry="28.99"/>
<text text-anchor="start" x="25.6" y="-363.64" font-family="Times,serif" font-size="14.00">data 1.0000 </text>
<text text-anchor="middle" x="60.1" y="-347.14" font-family="Times,serif" font-size="14.00">grad 1.0000 </text>
</g>
<!-- 1 -->
<g id="node2" class="node">
<title>1</title>
<ellipse fill="none" stroke="black" cx="76.1" cy="-139.47" rx="60.1" ry="28.99"/>
<text text-anchor="start" x="41.6" y="-142.67" font-family="Times,serif" font-size="14.00">data 3.0000 </text>
<text text-anchor="middle" x="76.1" y="-126.17" font-family="Times,serif" font-size="14.00">grad 1.0000 </text>
</g>
<!-- 0&#45;&gt;1 -->
<g id="edge3" class="edge">
<title>0&#45;&gt;1</title>
<path fill="none" stroke="black" d="M61.68,-331.05C63.28,-303.05 65.94,-259.03 68.85,-220.97 69.87,-207.68 71.13,-193.18 72.31,-180.19"/>
<polygon fill="black" stroke="black" points="75.8,-180.56 73.23,-170.28 68.83,-179.91 75.8,-180.56"/>
<text text-anchor="middle" x="72.98" y="-244.91" font-family="Times,serif" font-size="14.00">+</text>
</g>
<!-- 4 -->
<g id="node5" class="node">
<title>4</title>
<ellipse fill="none" stroke="black" cx="146.1" cy="-249.96" rx="60.1" ry="28.99"/>
<text text-anchor="start" x="111.6" y="-253.16" font-family="Times,serif" font-size="14.00">data 2.0000 </text>
<text text-anchor="middle" x="146.1" y="-236.66" font-family="Times,serif" font-size="14.00">grad 1.0000 </text>
</g>
<!-- 0&#45;&gt;4 -->
<g id="edge1" class="edge">
<title>0&#45;&gt;4</title>
<path fill="none" stroke="black" d="M81.14,-332.9C92.28,-318.85 106.11,-301.4 118.14,-286.23"/>
<polygon fill="black" stroke="black" points="120.58,-288.79 124.04,-278.78 115.09,-284.44 120.58,-288.79"/>
<text text-anchor="middle" x="111.63" y="-300.15" font-family="Times,serif" font-size="14.00">*</text>
</g>
<!-- 3 -->
<g id="node4" class="node">
<title>3</title>
<ellipse fill="none" stroke="black" cx="76.1" cy="-28.99" rx="60.1" ry="28.99"/>
<text text-anchor="start" x="41.6" y="-32.19" font-family="Times,serif" font-size="14.00">data 3.0000 </text>
<text text-anchor="middle" x="76.1" y="-15.69" font-family="Times,serif" font-size="14.00">grad 1.0000 </text>
</g>
<!-- 1&#45;&gt;3 -->
<g id="edge4" class="edge">
<title>1&#45;&gt;3</title>
<path fill="none" stroke="black" d="M76.1,-110.25C76.1,-97.92 76.1,-83.24 76.1,-69.82"/>
<polygon fill="black" stroke="black" points="79.6,-69.96 76.1,-59.96 72.6,-69.96 79.6,-69.96"/>
<text text-anchor="middle" x="92.6" y="-79.18" font-family="Times,serif" font-size="14.00">ReLU</text>
</g>
<!-- 2 -->
<g id="node3" class="node">
<title>2</title>
<ellipse fill="none" stroke="black" cx="198.1" cy="-360.44" rx="60.1" ry="28.99"/>
<text text-anchor="start" x="163.6" y="-363.64" font-family="Times,serif" font-size="14.00">data 2.0000 </text>
<text text-anchor="middle" x="198.1" y="-347.14" font-family="Times,serif" font-size="14.00">grad 2.0000 </text>
</g>
<!-- 2&#45;&gt;4 -->
<g id="edge2" class="edge">
<title>2&#45;&gt;4</title>
<path fill="none" stroke="black" d="M184.85,-331.78C178.55,-318.65 170.93,-302.75 164.12,-288.55"/>
<polygon fill="black" stroke="black" points="167.47,-287.43 159.99,-279.93 161.16,-290.46 167.47,-287.43"/>
<text text-anchor="middle" x="178.59" y="-300.15" font-family="Times,serif" font-size="14.00">*</text>
</g>
<!-- 4&#45;&gt;1 -->
<g id="edge5" class="edge">
<title>4&#45;&gt;1</title>
<path fill="none" stroke="black" d="M128.62,-221.86C119.85,-208.27 109.1,-191.62 99.62,-176.92"/>
<polygon fill="black" stroke="black" points="102.79,-175.38 94.43,-168.87 96.91,-179.17 102.79,-175.38"/>
<text text-anchor="middle" x="119.42" y="-189.67" font-family="Times,serif" font-size="14.00">+</text>
</g>
</g>
</svg>
